# Wavefront OBJ file automatically generated by Tiled2Unity

# Vertices (Count = 451)
v -1248 -32 0
v -1280 -32 0
v -1280 0 0
v -1248 0 0
v -1216 -32 0
v -1216 0 0
v -1184 -32 0
v -1184 0 0
v -1152 -32 0
v -1152 0 0
v -1120 -32 0
v -1120 0 0
v -1088 -32 0
v -1088 0 0
v -1056 -32 0
v -1056 0 0
v -1024 -32 0
v -1024 0 0
v -992 -32 0
v -992 0 0
v -960 -32 0
v -960 0 0
v -928 -32 0
v -928 0 0
v -896 -32 0
v -896 0 0
v -864 -32 0
v -864 0 0
v -832 -32 0
v -832 0 0
v -800 -32 0
v -800 0 0
v -768 -32 0
v -768 0 0
v -736 -32 0
v -736 0 0
v -704 -32 0
v -704 0 0
v -672 -32 0
v -672 0 0
v -640 -32 0
v -640 0 0
v -608 -32 0
v -608 0 0
v -576 -32 0
v -576 0 0
v -544 -32 0
v -544 0 0
v -512 -32 0
v -512 0 0
v -480 -32 0
v -480 0 0
v -448 -32 0
v -448 0 0
v -416 -32 0
v -416 0 0
v -384 -32 0
v -384 0 0
v -352 -32 0
v -352 0 0
v -320 -32 0
v -320 0 0
v -288 -32 0
v -288 0 0
v -256 -32 0
v -256 0 0
v -224 -32 0
v -224 0 0
v -192 -32 0
v -192 0 0
v -160 -32 0
v -160 0 0
v -128 -32 0
v -128 0 0
v -96 -32 0
v -96 0 0
v -64 -32 0
v -64 0 0
v -32 -32 0
v -32 0 0
v 0 -32 0
v 0 0 0
v -1248 -64 0
v -1280 -64 0
v 0 -64 0
v -32 -64 0
v -1248 -96 0
v -1280 -96 0
v 0 -96 0
v -32 -96 0
v -1248 -128 0
v -1280 -128 0
v 0 -128 0
v -32 -128 0
v -1248 -160 0
v -1280 -160 0
v 0 -160 0
v -32 -160 0
v -1248 -192 0
v -1280 -192 0
v -832 -192 0
v -864 -192 0
v -864 -160 0
v -832 -160 0
v -800 -192 0
v -800 -160 0
v -768 -192 0
v -768 -160 0
v -736 -192 0
v -736 -160 0
v -704 -192 0
v -704 -160 0
v -672 -192 0
v -672 -160 0
v -640 -192 0
v -640 -160 0
v -608 -192 0
v -608 -160 0
v -576 -192 0
v -576 -160 0
v -544 -192 0
v -544 -160 0
v -512 -192 0
v -512 -160 0
v -480 -192 0
v -480 -160 0
v -448 -192 0
v -448 -160 0
v -416 -192 0
v -416 -160 0
v -384 -192 0
v -384 -160 0
v -352 -192 0
v -352 -160 0
v -320 -192 0
v -320 -160 0
v -288 -192 0
v -288 -160 0
v -256 -192 0
v -256 -160 0
v -224 -192 0
v -224 -160 0
v -192 -192 0
v -192 -160 0
v -160 -192 0
v -160 -160 0
v -128 -192 0
v -128 -160 0
v -96 -192 0
v -96 -160 0
v 0 -192 0
v -32 -192 0
v -1248 -224 0
v -1280 -224 0
v -832 -224 0
v -864 -224 0
v 0 -224 0
v -32 -224 0
v -1248 -256 0
v -1280 -256 0
v -832 -256 0
v -864 -256 0
v 0 -256 0
v -32 -256 0
v -1248 -288 0
v -1280 -288 0
v -832 -288 0
v -864 -288 0
v 0 -288 0
v -32 -288 0
v -1248 -320 0
v -1280 -320 0
v -1216 -320 0
v -1216 -288 0
v -1184 -320 0
v -1184 -288 0
v -1152 -320 0
v -1152 -288 0
v -1120 -320 0
v -1120 -288 0
v -1088 -320 0
v -1088 -288 0
v -1056 -320 0
v -1056 -288 0
v -1024 -320 0
v -1024 -288 0
v -992 -320 0
v -992 -288 0
v -960 -320 0
v -960 -288 0
v -928 -320 0
v -928 -288 0
v -896 -320 0
v -896 -288 0
v -864 -320 0
v -832 -320 0
v -800 -320 0
v -800 -288 0
v -768 -320 0
v -768 -288 0
v -736 -320 0
v -736 -288 0
v -704 -320 0
v -704 -288 0
v -672 -320 0
v -672 -288 0
v -640 -320 0
v -640 -288 0
v -608 -320 0
v -608 -288 0
v -576 -320 0
v -576 -288 0
v -544 -320 0
v -544 -288 0
v -512 -320 0
v -512 -288 0
v -480 -320 0
v -480 -288 0
v -448 -320 0
v -448 -288 0
v -416 -320 0
v -416 -288 0
v -384 -320 0
v -384 -288 0
v -352 -320 0
v -352 -288 0
v -320 -320 0
v -320 -288 0
v -288 -320 0
v -288 -288 0
v -256 -320 0
v -256 -288 0
v -224 -320 0
v -224 -288 0
v -192 -320 0
v -192 -288 0
v -160 -320 0
v -160 -288 0
v -128 -320 0
v -128 -288 0
v -96 -320 0
v -96 -288 0
v -64 -320 0
v -64 -288 0
v -32 -320 0
v 0 -320 0
v -64 -256 0
v -96 -256 0
v -96 -224 0
v -64 -224 0
v -1216 -64 0
v -1184 -64 0
v -1152 -64 0
v -1120 -64 0
v -1088 -64 0
v -1056 -64 0
v -1024 -64 0
v -992 -64 0
v -960 -64 0
v -928 -64 0
v -896 -64 0
v -864 -64 0
v -832 -64 0
v -800 -64 0
v -768 -64 0
v -736 -64 0
v -704 -64 0
v -672 -64 0
v -640 -64 0
v -608 -64 0
v -576 -64 0
v -544 -64 0
v -512 -64 0
v -480 -64 0
v -448 -64 0
v -416 -64 0
v -384 -64 0
v -352 -64 0
v -320 -64 0
v -288 -64 0
v -256 -64 0
v -224 -64 0
v -192 -64 0
v -160 -64 0
v -128 -64 0
v -96 -64 0
v -64 -64 0
v -1216 -96 0
v -1184 -96 0
v -1152 -96 0
v -1120 -96 0
v -1088 -96 0
v -1056 -96 0
v -1024 -96 0
v -992 -96 0
v -960 -96 0
v -928 -96 0
v -896 -96 0
v -864 -96 0
v -832 -96 0
v -800 -96 0
v -768 -96 0
v -736 -96 0
v -704 -96 0
v -672 -96 0
v -640 -96 0
v -608 -96 0
v -576 -96 0
v -544 -96 0
v -512 -96 0
v -480 -96 0
v -448 -96 0
v -416 -96 0
v -384 -96 0
v -352 -96 0
v -320 -96 0
v -288 -96 0
v -256 -96 0
v -224 -96 0
v -192 -96 0
v -160 -96 0
v -128 -96 0
v -96 -96 0
v -64 -96 0
v -1216 -128 0
v -1184 -128 0
v -1152 -128 0
v -1120 -128 0
v -1088 -128 0
v -1056 -128 0
v -1024 -128 0
v -992 -128 0
v -960 -128 0
v -928 -128 0
v -896 -128 0
v -864 -128 0
v -832 -128 0
v -800 -128 0
v -768 -128 0
v -736 -128 0
v -704 -128 0
v -672 -128 0
v -640 -128 0
v -608 -128 0
v -576 -128 0
v -544 -128 0
v -512 -128 0
v -480 -128 0
v -448 -128 0
v -416 -128 0
v -384 -128 0
v -352 -128 0
v -320 -128 0
v -288 -128 0
v -256 -128 0
v -224 -128 0
v -192 -128 0
v -160 -128 0
v -128 -128 0
v -96 -128 0
v -64 -128 0
v -1216 -160 0
v -1184 -160 0
v -1152 -160 0
v -1120 -160 0
v -1088 -160 0
v -1056 -160 0
v -1024 -160 0
v -992 -160 0
v -960 -160 0
v -928 -160 0
v -896 -160 0
v -64 -160 0
v -1216 -192 0
v -1184 -192 0
v -1152 -192 0
v -1120 -192 0
v -1088 -192 0
v -1056 -192 0
v -1024 -192 0
v -992 -192 0
v -960 -192 0
v -928 -192 0
v -896 -192 0
v -64 -192 0
v -1216 -224 0
v -1184 -224 0
v -1152 -224 0
v -1120 -224 0
v -1088 -224 0
v -1056 -224 0
v -1024 -224 0
v -992 -224 0
v -960 -224 0
v -928 -224 0
v -896 -224 0
v -800 -224 0
v -768 -224 0
v -736 -224 0
v -704 -224 0
v -672 -224 0
v -640 -224 0
v -608 -224 0
v -576 -224 0
v -544 -224 0
v -512 -224 0
v -480 -224 0
v -448 -224 0
v -416 -224 0
v -384 -224 0
v -352 -224 0
v -320 -224 0
v -288 -224 0
v -256 -224 0
v -224 -224 0
v -192 -224 0
v -160 -224 0
v -128 -224 0
v -1216 -256 0
v -1184 -256 0
v -1152 -256 0
v -1120 -256 0
v -1088 -256 0
v -1056 -256 0
v -1024 -256 0
v -992 -256 0
v -960 -256 0
v -928 -256 0
v -896 -256 0
v -800 -256 0
v -768 -256 0
v -736 -256 0
v -704 -256 0
v -672 -256 0
v -640 -256 0
v -608 -256 0
v -576 -256 0
v -544 -256 0
v -512 -256 0
v -480 -256 0
v -448 -256 0
v -416 -256 0
v -384 -256 0
v -352 -256 0
v -320 -256 0
v -288 -256 0
v -256 -256 0
v -224 -256 0
v -192 -256 0
v -160 -256 0
v -128 -256 0

# Texture cooridinates (Count = 16)
vt 0.8334554 0.8001221
vt 0.9998779 0.8001221
vt 0.9998779 0.9998779
vt 0.8334554 0.9998779
vt 0.6667888 0.4001221
vt 0.8332112 0.4001221
vt 0.8332112 0.599878
vt 0.6667888 0.599878
vt 0.5001221 0.4001221
vt 0.6665446 0.4001221
vt 0.6665446 0.599878
vt 0.5001221 0.599878
vt 0.1667887 0.6001221
vt 0.3332113 0.6001221
vt 0.3332113 0.7998779
vt 0.1667887 0.7998779

# Normal
vn 0 0 -1

# Groups (Count = 4)

g mesh_0001
f 1/1/1 2/2/1 3/3/1 4/4/1
f 5/1/1 1/2/1 4/3/1 6/4/1
f 7/1/1 5/2/1 6/3/1 8/4/1
f 9/1/1 7/2/1 8/3/1 10/4/1
f 11/1/1 9/2/1 10/3/1 12/4/1
f 13/1/1 11/2/1 12/3/1 14/4/1
f 15/1/1 13/2/1 14/3/1 16/4/1
f 17/1/1 15/2/1 16/3/1 18/4/1
f 19/1/1 17/2/1 18/3/1 20/4/1
f 21/1/1 19/2/1 20/3/1 22/4/1
f 23/1/1 21/2/1 22/3/1 24/4/1
f 25/1/1 23/2/1 24/3/1 26/4/1
f 27/1/1 25/2/1 26/3/1 28/4/1
f 29/1/1 27/2/1 28/3/1 30/4/1
f 31/1/1 29/2/1 30/3/1 32/4/1
f 33/1/1 31/2/1 32/3/1 34/4/1
f 35/1/1 33/2/1 34/3/1 36/4/1
f 37/1/1 35/2/1 36/3/1 38/4/1
f 39/1/1 37/2/1 38/3/1 40/4/1
f 41/1/1 39/2/1 40/3/1 42/4/1
f 43/1/1 41/2/1 42/3/1 44/4/1
f 45/1/1 43/2/1 44/3/1 46/4/1
f 47/1/1 45/2/1 46/3/1 48/4/1
f 49/1/1 47/2/1 48/3/1 50/4/1
f 51/1/1 49/2/1 50/3/1 52/4/1
f 53/1/1 51/2/1 52/3/1 54/4/1
f 55/1/1 53/2/1 54/3/1 56/4/1
f 57/1/1 55/2/1 56/3/1 58/4/1
f 59/1/1 57/2/1 58/3/1 60/4/1
f 61/1/1 59/2/1 60/3/1 62/4/1
f 63/1/1 61/2/1 62/3/1 64/4/1
f 65/1/1 63/2/1 64/3/1 66/4/1
f 67/1/1 65/2/1 66/3/1 68/4/1
f 69/1/1 67/2/1 68/3/1 70/4/1
f 71/1/1 69/2/1 70/3/1 72/4/1
f 73/1/1 71/2/1 72/3/1 74/4/1
f 75/1/1 73/2/1 74/3/1 76/4/1
f 77/1/1 75/2/1 76/3/1 78/4/1
f 79/1/1 77/2/1 78/3/1 80/4/1
f 81/1/1 79/2/1 80/3/1 82/4/1
f 83/1/1 84/2/1 2/3/1 1/4/1
f 85/1/1 86/2/1 79/3/1 81/4/1
f 87/1/1 88/2/1 84/3/1 83/4/1
f 89/1/1 90/2/1 86/3/1 85/4/1
f 91/1/1 92/2/1 88/3/1 87/4/1
f 93/1/1 94/2/1 90/3/1 89/4/1
f 95/1/1 96/2/1 92/3/1 91/4/1
f 97/1/1 98/2/1 94/3/1 93/4/1
f 99/1/1 100/2/1 96/3/1 95/4/1
f 101/1/1 102/2/1 103/3/1 104/4/1
f 105/1/1 101/2/1 104/3/1 106/4/1
f 107/1/1 105/2/1 106/3/1 108/4/1
f 109/1/1 107/2/1 108/3/1 110/4/1
f 111/1/1 109/2/1 110/3/1 112/4/1
f 113/1/1 111/2/1 112/3/1 114/4/1
f 115/1/1 113/2/1 114/3/1 116/4/1
f 117/1/1 115/2/1 116/3/1 118/4/1
f 119/1/1 117/2/1 118/3/1 120/4/1
f 121/1/1 119/2/1 120/3/1 122/4/1
f 123/1/1 121/2/1 122/3/1 124/4/1
f 125/1/1 123/2/1 124/3/1 126/4/1
f 127/1/1 125/2/1 126/3/1 128/4/1
f 129/1/1 127/2/1 128/3/1 130/4/1
f 131/1/1 129/2/1 130/3/1 132/4/1
f 133/1/1 131/2/1 132/3/1 134/4/1
f 135/1/1 133/2/1 134/3/1 136/4/1
f 137/1/1 135/2/1 136/3/1 138/4/1
f 139/1/1 137/2/1 138/3/1 140/4/1
f 141/1/1 139/2/1 140/3/1 142/4/1
f 143/1/1 141/2/1 142/3/1 144/4/1
f 145/1/1 143/2/1 144/3/1 146/4/1
f 147/1/1 145/2/1 146/3/1 148/4/1
f 149/1/1 147/2/1 148/3/1 150/4/1
f 151/1/1 152/2/1 98/3/1 97/4/1
f 153/1/1 154/2/1 100/3/1 99/4/1
f 155/1/1 156/2/1 102/3/1 101/4/1
f 157/1/1 158/2/1 152/3/1 151/4/1
f 159/1/1 160/2/1 154/3/1 153/4/1
f 161/1/1 162/2/1 156/3/1 155/4/1
f 163/1/1 164/2/1 158/3/1 157/4/1
f 165/1/1 166/2/1 160/3/1 159/4/1
f 167/1/1 168/2/1 162/3/1 161/4/1
f 169/1/1 170/2/1 164/3/1 163/4/1
f 171/1/1 172/2/1 166/3/1 165/4/1
f 173/1/1 171/2/1 165/3/1 174/4/1
f 175/1/1 173/2/1 174/3/1 176/4/1
f 177/1/1 175/2/1 176/3/1 178/4/1
f 179/1/1 177/2/1 178/3/1 180/4/1
f 181/1/1 179/2/1 180/3/1 182/4/1
f 183/1/1 181/2/1 182/3/1 184/4/1
f 185/1/1 183/2/1 184/3/1 186/4/1
f 187/1/1 185/2/1 186/3/1 188/4/1
f 189/1/1 187/2/1 188/3/1 190/4/1
f 191/1/1 189/2/1 190/3/1 192/4/1
f 193/1/1 191/2/1 192/3/1 194/4/1
f 195/1/1 193/2/1 194/3/1 168/4/1
f 196/1/1 195/2/1 168/3/1 167/4/1
f 197/1/1 196/2/1 167/3/1 198/4/1
f 199/1/1 197/2/1 198/3/1 200/4/1
f 201/1/1 199/2/1 200/3/1 202/4/1
f 203/1/1 201/2/1 202/3/1 204/4/1
f 205/1/1 203/2/1 204/3/1 206/4/1
f 207/1/1 205/2/1 206/3/1 208/4/1
f 209/1/1 207/2/1 208/3/1 210/4/1
f 211/1/1 209/2/1 210/3/1 212/4/1
f 213/1/1 211/2/1 212/3/1 214/4/1
f 215/1/1 213/2/1 214/3/1 216/4/1
f 217/1/1 215/2/1 216/3/1 218/4/1
f 219/1/1 217/2/1 218/3/1 220/4/1
f 221/1/1 219/2/1 220/3/1 222/4/1
f 223/1/1 221/2/1 222/3/1 224/4/1
f 225/1/1 223/2/1 224/3/1 226/4/1
f 227/1/1 225/2/1 226/3/1 228/4/1
f 229/1/1 227/2/1 228/3/1 230/4/1
f 231/1/1 229/2/1 230/3/1 232/4/1
f 233/1/1 231/2/1 232/3/1 234/4/1
f 235/1/1 233/2/1 234/3/1 236/4/1
f 237/1/1 235/2/1 236/3/1 238/4/1
f 239/1/1 237/2/1 238/3/1 240/4/1
f 241/1/1 239/2/1 240/3/1 242/4/1
f 243/1/1 241/2/1 242/3/1 244/4/1
f 245/1/1 243/2/1 244/3/1 170/4/1
f 246/1/1 245/2/1 170/3/1 169/4/1

g mesh_0002
f 247/5/1 248/6/1 249/7/1 250/8/1
f 164/5/1 247/6/1 250/7/1 158/8/1
f 244/5/1 242/6/1 248/7/1 247/8/1
f 170/5/1 244/6/1 247/7/1 164/8/1

g mesh_0003
f 251/9/1 83/10/1 1/11/1 5/12/1
f 252/9/1 251/10/1 5/11/1 7/12/1
f 253/9/1 252/10/1 7/11/1 9/12/1
f 254/9/1 253/10/1 9/11/1 11/12/1
f 255/9/1 254/10/1 11/11/1 13/12/1
f 256/9/1 255/10/1 13/11/1 15/12/1
f 257/9/1 256/10/1 15/11/1 17/12/1
f 258/9/1 257/10/1 17/11/1 19/12/1
f 259/9/1 258/10/1 19/11/1 21/12/1
f 260/9/1 259/10/1 21/11/1 23/12/1
f 261/9/1 260/10/1 23/11/1 25/12/1
f 262/9/1 261/10/1 25/11/1 27/12/1
f 263/9/1 262/10/1 27/11/1 29/12/1
f 264/9/1 263/10/1 29/11/1 31/12/1
f 265/9/1 264/10/1 31/11/1 33/12/1
f 266/9/1 265/10/1 33/11/1 35/12/1
f 267/9/1 266/10/1 35/11/1 37/12/1
f 268/9/1 267/10/1 37/11/1 39/12/1
f 269/9/1 268/10/1 39/11/1 41/12/1
f 270/9/1 269/10/1 41/11/1 43/12/1
f 271/9/1 270/10/1 43/11/1 45/12/1
f 272/9/1 271/10/1 45/11/1 47/12/1
f 273/9/1 272/10/1 47/11/1 49/12/1
f 274/9/1 273/10/1 49/11/1 51/12/1
f 275/9/1 274/10/1 51/11/1 53/12/1
f 276/9/1 275/10/1 53/11/1 55/12/1
f 277/9/1 276/10/1 55/11/1 57/12/1
f 278/9/1 277/10/1 57/11/1 59/12/1
f 279/9/1 278/10/1 59/11/1 61/12/1
f 280/9/1 279/10/1 61/11/1 63/12/1
f 281/9/1 280/10/1 63/11/1 65/12/1
f 282/9/1 281/10/1 65/11/1 67/12/1
f 283/9/1 282/10/1 67/11/1 69/12/1
f 284/9/1 283/10/1 69/11/1 71/12/1
f 285/9/1 284/10/1 71/11/1 73/12/1
f 286/9/1 285/10/1 73/11/1 75/12/1
f 287/9/1 286/10/1 75/11/1 77/12/1
f 86/9/1 287/10/1 77/11/1 79/12/1
f 288/9/1 87/10/1 83/11/1 251/12/1
f 289/9/1 288/10/1 251/11/1 252/12/1
f 290/9/1 289/10/1 252/11/1 253/12/1
f 291/9/1 290/10/1 253/11/1 254/12/1
f 292/9/1 291/10/1 254/11/1 255/12/1
f 293/9/1 292/10/1 255/11/1 256/12/1
f 294/9/1 293/10/1 256/11/1 257/12/1
f 295/9/1 294/10/1 257/11/1 258/12/1
f 296/9/1 295/10/1 258/11/1 259/12/1
f 297/9/1 296/10/1 259/11/1 260/12/1
f 298/9/1 297/10/1 260/11/1 261/12/1
f 299/9/1 298/10/1 261/11/1 262/12/1
f 300/9/1 299/10/1 262/11/1 263/12/1
f 301/9/1 300/10/1 263/11/1 264/12/1
f 302/9/1 301/10/1 264/11/1 265/12/1
f 303/9/1 302/10/1 265/11/1 266/12/1
f 304/9/1 303/10/1 266/11/1 267/12/1
f 305/9/1 304/10/1 267/11/1 268/12/1
f 306/9/1 305/10/1 268/11/1 269/12/1
f 307/9/1 306/10/1 269/11/1 270/12/1
f 308/9/1 307/10/1 270/11/1 271/12/1
f 309/9/1 308/10/1 271/11/1 272/12/1
f 310/9/1 309/10/1 272/11/1 273/12/1
f 311/9/1 310/10/1 273/11/1 274/12/1
f 312/9/1 311/10/1 274/11/1 275/12/1
f 313/9/1 312/10/1 275/11/1 276/12/1
f 314/9/1 313/10/1 276/11/1 277/12/1
f 315/9/1 314/10/1 277/11/1 278/12/1
f 316/9/1 315/10/1 278/11/1 279/12/1
f 317/9/1 316/10/1 279/11/1 280/12/1
f 318/9/1 317/10/1 280/11/1 281/12/1
f 319/9/1 318/10/1 281/11/1 282/12/1
f 320/9/1 319/10/1 282/11/1 283/12/1
f 321/9/1 320/10/1 283/11/1 284/12/1
f 322/9/1 321/10/1 284/11/1 285/12/1
f 323/9/1 322/10/1 285/11/1 286/12/1
f 324/9/1 323/10/1 286/11/1 287/12/1
f 90/9/1 324/10/1 287/11/1 86/12/1
f 325/9/1 91/10/1 87/11/1 288/12/1
f 326/9/1 325/10/1 288/11/1 289/12/1
f 327/9/1 326/10/1 289/11/1 290/12/1
f 328/9/1 327/10/1 290/11/1 291/12/1
f 329/9/1 328/10/1 291/11/1 292/12/1
f 330/9/1 329/10/1 292/11/1 293/12/1
f 331/9/1 330/10/1 293/11/1 294/12/1
f 332/9/1 331/10/1 294/11/1 295/12/1
f 333/9/1 332/10/1 295/11/1 296/12/1
f 334/9/1 333/10/1 296/11/1 297/12/1
f 335/9/1 334/10/1 297/11/1 298/12/1
f 336/9/1 335/10/1 298/11/1 299/12/1
f 337/9/1 336/10/1 299/11/1 300/12/1
f 338/9/1 337/10/1 300/11/1 301/12/1
f 339/9/1 338/10/1 301/11/1 302/12/1
f 340/9/1 339/10/1 302/11/1 303/12/1
f 341/9/1 340/10/1 303/11/1 304/12/1
f 342/9/1 341/10/1 304/11/1 305/12/1
f 343/9/1 342/10/1 305/11/1 306/12/1
f 344/9/1 343/10/1 306/11/1 307/12/1
f 345/9/1 344/10/1 307/11/1 308/12/1
f 346/9/1 345/10/1 308/11/1 309/12/1
f 347/9/1 346/10/1 309/11/1 310/12/1
f 348/9/1 347/10/1 310/11/1 311/12/1
f 349/9/1 348/10/1 311/11/1 312/12/1
f 350/9/1 349/10/1 312/11/1 313/12/1
f 351/9/1 350/10/1 313/11/1 314/12/1
f 352/9/1 351/10/1 314/11/1 315/12/1
f 353/9/1 352/10/1 315/11/1 316/12/1
f 354/9/1 353/10/1 316/11/1 317/12/1
f 355/9/1 354/10/1 317/11/1 318/12/1
f 356/9/1 355/10/1 318/11/1 319/12/1
f 357/9/1 356/10/1 319/11/1 320/12/1
f 358/9/1 357/10/1 320/11/1 321/12/1
f 359/9/1 358/10/1 321/11/1 322/12/1
f 360/9/1 359/10/1 322/11/1 323/12/1
f 361/9/1 360/10/1 323/11/1 324/12/1
f 94/9/1 361/10/1 324/11/1 90/12/1
f 362/9/1 95/10/1 91/11/1 325/12/1
f 363/9/1 362/10/1 325/11/1 326/12/1
f 364/9/1 363/10/1 326/11/1 327/12/1
f 365/9/1 364/10/1 327/11/1 328/12/1
f 366/9/1 365/10/1 328/11/1 329/12/1
f 367/9/1 366/10/1 329/11/1 330/12/1
f 368/9/1 367/10/1 330/11/1 331/12/1
f 369/9/1 368/10/1 331/11/1 332/12/1
f 370/9/1 369/10/1 332/11/1 333/12/1
f 371/9/1 370/10/1 333/11/1 334/12/1
f 372/9/1 371/10/1 334/11/1 335/12/1
f 103/9/1 372/10/1 335/11/1 336/12/1
f 104/9/1 103/10/1 336/11/1 337/12/1
f 106/9/1 104/10/1 337/11/1 338/12/1
f 108/9/1 106/10/1 338/11/1 339/12/1
f 110/9/1 108/10/1 339/11/1 340/12/1
f 112/9/1 110/10/1 340/11/1 341/12/1
f 114/9/1 112/10/1 341/11/1 342/12/1
f 116/9/1 114/10/1 342/11/1 343/12/1
f 118/9/1 116/10/1 343/11/1 344/12/1
f 120/9/1 118/10/1 344/11/1 345/12/1
f 122/9/1 120/10/1 345/11/1 346/12/1
f 124/9/1 122/10/1 346/11/1 347/12/1
f 126/9/1 124/10/1 347/11/1 348/12/1
f 128/9/1 126/10/1 348/11/1 349/12/1
f 130/9/1 128/10/1 349/11/1 350/12/1
f 132/9/1 130/10/1 350/11/1 351/12/1
f 134/9/1 132/10/1 351/11/1 352/12/1
f 136/9/1 134/10/1 352/11/1 353/12/1
f 138/9/1 136/10/1 353/11/1 354/12/1
f 140/9/1 138/10/1 354/11/1 355/12/1
f 142/9/1 140/10/1 355/11/1 356/12/1
f 144/9/1 142/10/1 356/11/1 357/12/1
f 146/9/1 144/10/1 357/11/1 358/12/1
f 148/9/1 146/10/1 358/11/1 359/12/1
f 150/9/1 148/10/1 359/11/1 360/12/1
f 373/9/1 150/10/1 360/11/1 361/12/1
f 98/9/1 373/10/1 361/11/1 94/12/1
f 374/9/1 99/10/1 95/11/1 362/12/1
f 375/9/1 374/10/1 362/11/1 363/12/1
f 376/9/1 375/10/1 363/11/1 364/12/1
f 377/9/1 376/10/1 364/11/1 365/12/1
f 378/9/1 377/10/1 365/11/1 366/12/1
f 379/9/1 378/10/1 366/11/1 367/12/1
f 380/9/1 379/10/1 367/11/1 368/12/1
f 381/9/1 380/10/1 368/11/1 369/12/1
f 382/9/1 381/10/1 369/11/1 370/12/1
f 383/9/1 382/10/1 370/11/1 371/12/1
f 384/9/1 383/10/1 371/11/1 372/12/1
f 102/9/1 384/10/1 372/11/1 103/12/1
f 385/9/1 149/10/1 150/11/1 373/12/1
f 152/9/1 385/10/1 373/11/1 98/12/1
f 386/9/1 153/10/1 99/11/1 374/12/1
f 387/9/1 386/10/1 374/11/1 375/12/1
f 388/9/1 387/10/1 375/11/1 376/12/1
f 389/9/1 388/10/1 376/11/1 377/12/1
f 390/9/1 389/10/1 377/11/1 378/12/1
f 391/9/1 390/10/1 378/11/1 379/12/1
f 392/9/1 391/10/1 379/11/1 380/12/1
f 393/9/1 392/10/1 380/11/1 381/12/1
f 394/9/1 393/10/1 381/11/1 382/12/1
f 395/9/1 394/10/1 382/11/1 383/12/1
f 396/9/1 395/10/1 383/11/1 384/12/1
f 156/9/1 396/10/1 384/11/1 102/12/1
f 397/9/1 155/10/1 101/11/1 105/12/1
f 398/9/1 397/10/1 105/11/1 107/12/1
f 399/9/1 398/10/1 107/11/1 109/12/1
f 400/9/1 399/10/1 109/11/1 111/12/1
f 401/9/1 400/10/1 111/11/1 113/12/1
f 402/9/1 401/10/1 113/11/1 115/12/1
f 403/9/1 402/10/1 115/11/1 117/12/1
f 404/9/1 403/10/1 117/11/1 119/12/1
f 405/9/1 404/10/1 119/11/1 121/12/1
f 406/9/1 405/10/1 121/11/1 123/12/1
f 407/9/1 406/10/1 123/11/1 125/12/1
f 408/9/1 407/10/1 125/11/1 127/12/1
f 409/9/1 408/10/1 127/11/1 129/12/1
f 410/9/1 409/10/1 129/11/1 131/12/1
f 411/9/1 410/10/1 131/11/1 133/12/1
f 412/9/1 411/10/1 133/11/1 135/12/1
f 413/9/1 412/10/1 135/11/1 137/12/1
f 414/9/1 413/10/1 137/11/1 139/12/1
f 415/9/1 414/10/1 139/11/1 141/12/1
f 416/9/1 415/10/1 141/11/1 143/12/1
f 417/9/1 416/10/1 143/11/1 145/12/1
f 418/9/1 417/10/1 145/11/1 147/12/1
f 249/9/1 418/10/1 147/11/1 149/12/1
f 250/9/1 249/10/1 149/11/1 385/12/1
f 158/9/1 250/10/1 385/11/1 152/12/1
f 419/9/1 159/10/1 153/11/1 386/12/1
f 420/9/1 419/10/1 386/11/1 387/12/1
f 421/9/1 420/10/1 387/11/1 388/12/1
f 422/9/1 421/10/1 388/11/1 389/12/1
f 423/9/1 422/10/1 389/11/1 390/12/1
f 424/9/1 423/10/1 390/11/1 391/12/1
f 425/9/1 424/10/1 391/11/1 392/12/1
f 426/9/1 425/10/1 392/11/1 393/12/1
f 427/9/1 426/10/1 393/11/1 394/12/1
f 428/9/1 427/10/1 394/11/1 395/12/1
f 429/9/1 428/10/1 395/11/1 396/12/1
f 162/9/1 429/10/1 396/11/1 156/12/1
f 430/9/1 161/10/1 155/11/1 397/12/1
f 431/9/1 430/10/1 397/11/1 398/12/1
f 432/9/1 431/10/1 398/11/1 399/12/1
f 433/9/1 432/10/1 399/11/1 400/12/1
f 434/9/1 433/10/1 400/11/1 401/12/1
f 435/9/1 434/10/1 401/11/1 402/12/1
f 436/9/1 435/10/1 402/11/1 403/12/1
f 437/9/1 436/10/1 403/11/1 404/12/1
f 438/9/1 437/10/1 404/11/1 405/12/1
f 439/9/1 438/10/1 405/11/1 406/12/1
f 440/9/1 439/10/1 406/11/1 407/12/1
f 441/9/1 440/10/1 407/11/1 408/12/1
f 442/9/1 441/10/1 408/11/1 409/12/1
f 443/9/1 442/10/1 409/11/1 410/12/1
f 444/9/1 443/10/1 410/11/1 411/12/1
f 445/9/1 444/10/1 411/11/1 412/12/1
f 446/9/1 445/10/1 412/11/1 413/12/1
f 447/9/1 446/10/1 413/11/1 414/12/1
f 448/9/1 447/10/1 414/11/1 415/12/1
f 449/9/1 448/10/1 415/11/1 416/12/1
f 450/9/1 449/10/1 416/11/1 417/12/1
f 451/9/1 450/10/1 417/11/1 418/12/1
f 248/9/1 451/10/1 418/11/1 249/12/1
f 176/9/1 174/10/1 419/11/1 420/12/1
f 178/9/1 176/10/1 420/11/1 421/12/1
f 180/9/1 178/10/1 421/11/1 422/12/1
f 182/9/1 180/10/1 422/11/1 423/12/1
f 184/9/1 182/10/1 423/11/1 424/12/1
f 186/9/1 184/10/1 424/11/1 425/12/1
f 188/9/1 186/10/1 425/11/1 426/12/1
f 190/9/1 188/10/1 426/11/1 427/12/1
f 192/9/1 190/10/1 427/11/1 428/12/1
f 194/9/1 192/10/1 428/11/1 429/12/1
f 168/9/1 194/10/1 429/11/1 162/12/1
f 198/9/1 167/10/1 161/11/1 430/12/1
f 200/9/1 198/10/1 430/11/1 431/12/1
f 202/9/1 200/10/1 431/11/1 432/12/1
f 204/9/1 202/10/1 432/11/1 433/12/1
f 206/9/1 204/10/1 433/11/1 434/12/1
f 208/9/1 206/10/1 434/11/1 435/12/1
f 210/9/1 208/10/1 435/11/1 436/12/1
f 212/9/1 210/10/1 436/11/1 437/12/1
f 214/9/1 212/10/1 437/11/1 438/12/1
f 216/9/1 214/10/1 438/11/1 439/12/1
f 218/9/1 216/10/1 439/11/1 440/12/1
f 220/9/1 218/10/1 440/11/1 441/12/1
f 222/9/1 220/10/1 441/11/1 442/12/1
f 224/9/1 222/10/1 442/11/1 443/12/1
f 226/9/1 224/10/1 443/11/1 444/12/1
f 228/9/1 226/10/1 444/11/1 445/12/1
f 230/9/1 228/10/1 445/11/1 446/12/1
f 232/9/1 230/10/1 446/11/1 447/12/1
f 234/9/1 232/10/1 447/11/1 448/12/1
f 236/9/1 234/10/1 448/11/1 449/12/1
f 238/9/1 236/10/1 449/11/1 450/12/1
f 240/9/1 238/10/1 450/11/1 451/12/1
f 242/9/1 240/10/1 451/11/1 248/12/1

g mesh_0004
f 174/13/1 165/14/1 159/15/1 419/16/1

